<?xml version="1.0" encoding="UTF-8" standalone="no"?>
<!DOCTYPE svg PUBLIC "-//W3C//DTD SVG 1.1//EN"
 "http://www.w3.org/Graphics/SVG/1.1/DTD/svg11.dtd">
<!-- Generated by graphviz version 2.46.1 (20210213.1702)
 -->
<!-- Pages: 1 -->
<svg width="616pt" height="92pt"
 viewBox="0.00 0.00 616.35 91.70" xmlns="http://www.w3.org/2000/svg" xmlns:xlink="http://www.w3.org/1999/xlink">
<g id="graph0" class="graph" transform="scale(1 1) rotate(0) translate(4 87.7)">
<polygon fill="white" stroke="transparent" points="-4,4 -4,-87.7 612.35,-87.7 612.35,4 -4,4"/>
<!-- &#45;1 -->
<g id="node1" class="node">
<title>&#45;1</title>
<polygon fill="lightgray" stroke="black" points="250.85,-83.7 226.85,-83.7 226.85,-65.7 250.85,-65.7 250.85,-83.7"/>
<text text-anchor="middle" x="238.85" y="-72.5" font-family="Times New Roman,serif" font-size="9.00">&#45;1</text>
</g>
<!-- 0 -->
<g id="node15" class="node">
<title>0</title>
<ellipse fill="lightblue" stroke="black" cx="62.85" cy="-14.85" rx="14.7" ry="14.7"/>
<text text-anchor="middle" x="62.85" y="-12.65" font-family="Times New Roman,serif" font-size="9.00">0</text>
</g>
<!-- &#45;1&#45;&gt;0 -->
<g id="edge1" class="edge">
<title>&#45;1&#45;&gt;0</title>
<path fill="none" stroke="green" stroke-width="1.01" d="M226.48,-68.76C223.66,-67.7 220.67,-66.62 217.85,-65.7 160.46,-46.93 142.56,-52.98 86.85,-29.7 85.99,-29.34 85.13,-28.96 84.27,-28.56"/>
<polygon fill="green" stroke="green" stroke-width="1.01" points="85.72,-25.37 75.24,-23.81 82.46,-31.56 85.72,-25.37"/>
</g>
<!-- 1 -->
<g id="node16" class="node">
<title>1</title>
<ellipse fill="lightblue" stroke="black" cx="306.85" cy="-14.85" rx="14.7" ry="14.7"/>
<text text-anchor="middle" x="306.85" y="-12.65" font-family="Times New Roman,serif" font-size="9.00">1</text>
</g>
<!-- &#45;1&#45;&gt;1 -->
<g id="edge2" class="edge">
<title>&#45;1&#45;&gt;1</title>
<path fill="none" stroke="red" stroke-width="0.88" d="M248.3,-65.65C258.48,-57 274.94,-42.99 287.82,-32.03"/>
<polygon fill="red" stroke="red" stroke-width="0.88" points="290.32,-34.51 295.67,-25.36 285.78,-29.18 290.32,-34.51"/>
</g>
<!-- &#45;2 -->
<g id="node2" class="node">
<title>&#45;2</title>
<polygon fill="lightgray" stroke="black" points="387.85,-83.7 363.85,-83.7 363.85,-65.7 387.85,-65.7 387.85,-83.7"/>
<text text-anchor="middle" x="375.85" y="-72.5" font-family="Times New Roman,serif" font-size="9.00">&#45;2</text>
</g>
<!-- &#45;2&#45;&gt;1 -->
<g id="edge3" class="edge">
<title>&#45;2&#45;&gt;1</title>
<path fill="none" stroke="green" stroke-width="0.55" d="M366.26,-65.65C355.81,-56.89 338.83,-42.66 325.69,-31.65"/>
<polygon fill="green" stroke="green" stroke-width="0.55" points="327.64,-28.71 317.73,-24.97 323.14,-34.07 327.64,-28.71"/>
</g>
<!-- &#45;3 -->
<g id="node3" class="node">
<title>&#45;3</title>
<polygon fill="lightgray" stroke="black" points="166.85,-83.7 142.85,-83.7 142.85,-65.7 166.85,-65.7 166.85,-83.7"/>
<text text-anchor="middle" x="154.85" y="-72.5" font-family="Times New Roman,serif" font-size="9.00">&#45;3</text>
</g>
<!-- 2 -->
<g id="node17" class="node">
<title>2</title>
<ellipse fill="lightblue" stroke="black" cx="158.85" cy="-14.85" rx="14.7" ry="14.7"/>
<text text-anchor="middle" x="158.85" y="-12.65" font-family="Times New Roman,serif" font-size="9.00">2</text>
</g>
<!-- &#45;3&#45;&gt;2 -->
<g id="edge4" class="edge">
<title>&#45;3&#45;&gt;2</title>
<path fill="none" stroke="green" stroke-width="1.95" d="M155.41,-65.65C155.86,-59.05 156.53,-49.33 157.16,-40.23"/>
<polygon fill="green" stroke="green" stroke-width="1.95" points="160.67,-40.27 157.87,-30.06 153.69,-39.79 160.67,-40.27"/>
</g>
<!-- 4 -->
<g id="node19" class="node">
<title>4</title>
<ellipse fill="lightblue" stroke="black" cx="206.85" cy="-14.85" rx="14.7" ry="14.7"/>
<text text-anchor="middle" x="206.85" y="-12.65" font-family="Times New Roman,serif" font-size="9.00">4</text>
</g>
<!-- &#45;3&#45;&gt;4 -->
<g id="edge5" class="edge">
<title>&#45;3&#45;&gt;4</title>
<path fill="none" stroke="red" stroke-width="0.31" stroke-dasharray="1,5" d="M162.08,-65.65C169.37,-57.54 180.89,-44.73 190.41,-34.13"/>
<polygon fill="red" stroke="red" stroke-width="0.31" points="193.12,-36.35 197.21,-26.58 187.92,-31.68 193.12,-36.35"/>
</g>
<!-- 5 -->
<g id="node20" class="node">
<title>5</title>
<ellipse fill="lightblue" stroke="black" cx="110.85" cy="-14.85" rx="14.7" ry="14.7"/>
<text text-anchor="middle" x="110.85" y="-12.65" font-family="Times New Roman,serif" font-size="9.00">5</text>
</g>
<!-- &#45;3&#45;&gt;5 -->
<g id="edge14" class="edge">
<title>&#45;3&#45;&gt;5</title>
<path fill="none" stroke="green" stroke-width="0.66" d="M148.73,-65.65C142.83,-57.89 133.66,-45.84 125.82,-35.53"/>
<polygon fill="green" stroke="green" stroke-width="0.66" points="128.49,-33.26 119.65,-27.42 122.92,-37.5 128.49,-33.26"/>
</g>
<!-- &#45;4 -->
<g id="node4" class="node">
<title>&#45;4</title>
<polygon fill="lightgray" stroke="black" points="28.85,-83.7 4.85,-83.7 4.85,-65.7 28.85,-65.7 28.85,-83.7"/>
<text text-anchor="middle" x="16.85" y="-72.5" font-family="Times New Roman,serif" font-size="9.00">&#45;4</text>
</g>
<!-- &#45;4&#45;&gt;0 -->
<g id="edge6" class="edge">
<title>&#45;4&#45;&gt;0</title>
<path fill="none" stroke="red" stroke-width="1.89" d="M23.25,-65.65C29.56,-57.72 39.44,-45.29 47.75,-34.83"/>
<polygon fill="red" stroke="red" stroke-width="1.89" points="50.5,-37 53.99,-26.99 45.02,-32.64 50.5,-37"/>
</g>
<!-- 3 -->
<g id="node18" class="node">
<title>3</title>
<ellipse fill="lightblue" stroke="black" cx="14.85" cy="-14.85" rx="14.7" ry="14.7"/>
<text text-anchor="middle" x="14.85" y="-12.65" font-family="Times New Roman,serif" font-size="9.00">3</text>
</g>
<!-- &#45;4&#45;&gt;3 -->
<g id="edge7" class="edge">
<title>&#45;4&#45;&gt;3</title>
<path fill="none" stroke="green" stroke-width="2.08" d="M16.57,-65.65C16.34,-59.05 16.01,-49.33 15.69,-40.23"/>
<polygon fill="green" stroke="green" stroke-width="2.08" points="19.18,-39.93 15.34,-30.06 12.19,-40.17 19.18,-39.93"/>
</g>
<!-- &#45;5 -->
<g id="node5" class="node">
<title>&#45;5</title>
<polygon fill="lightgray" stroke="black" points="208.85,-83.7 184.85,-83.7 184.85,-65.7 208.85,-65.7 208.85,-83.7"/>
<text text-anchor="middle" x="196.85" y="-72.5" font-family="Times New Roman,serif" font-size="9.00">&#45;5</text>
</g>
<!-- &#45;5&#45;&gt;4 -->
<g id="edge8" class="edge">
<title>&#45;5&#45;&gt;4</title>
<path fill="none" stroke="green" stroke-width="1.67" d="M198.24,-65.65C199.41,-58.89 201.14,-48.86 202.75,-39.57"/>
<polygon fill="green" stroke="green" stroke-width="1.67" points="206.22,-40.05 204.47,-29.6 199.32,-38.86 206.22,-40.05"/>
</g>
<!-- &#45;6 -->
<g id="node6" class="node">
<title>&#45;6</title>
<polygon fill="lightgray" stroke="black" points="120.85,-83.7 96.85,-83.7 96.85,-65.7 120.85,-65.7 120.85,-83.7"/>
<text text-anchor="middle" x="108.85" y="-72.5" font-family="Times New Roman,serif" font-size="9.00">&#45;6</text>
</g>
<!-- &#45;6&#45;&gt;0 -->
<g id="edge15" class="edge">
<title>&#45;6&#45;&gt;0</title>
<path fill="none" stroke="red" stroke-width="0.11" d="M102.45,-65.65C96.14,-57.72 86.26,-45.29 77.94,-34.83"/>
<polygon fill="red" stroke="red" stroke-width="0.11" points="80.68,-32.64 71.71,-26.99 75.2,-37 80.68,-32.64"/>
</g>
<!-- &#45;6&#45;&gt;5 -->
<g id="edge9" class="edge">
<title>&#45;6&#45;&gt;5</title>
<path fill="none" stroke="green" stroke-width="1.41" d="M109.13,-65.65C109.36,-59.05 109.69,-49.33 110.01,-40.23"/>
<polygon fill="green" stroke="green" stroke-width="1.41" points="113.51,-40.17 110.36,-30.06 106.51,-39.93 113.51,-40.17"/>
</g>
<!-- &#45;7 -->
<g id="node7" class="node">
<title>&#45;7</title>
<polygon fill="lightgray" stroke="black" points="429.85,-83.7 405.85,-83.7 405.85,-65.7 429.85,-65.7 429.85,-83.7"/>
<text text-anchor="middle" x="417.85" y="-72.5" font-family="Times New Roman,serif" font-size="9.00">&#45;7</text>
</g>
<!-- &#45;8 -->
<g id="node8" class="node">
<title>&#45;8</title>
<polygon fill="lightgray" stroke="black" points="471.85,-83.7 447.85,-83.7 447.85,-65.7 471.85,-65.7 471.85,-83.7"/>
<text text-anchor="middle" x="459.85" y="-72.5" font-family="Times New Roman,serif" font-size="9.00">&#45;8</text>
</g>
<!-- &#45;9 -->
<g id="node9" class="node">
<title>&#45;9</title>
<polygon fill="lightgray" stroke="black" points="513.85,-83.7 489.85,-83.7 489.85,-65.7 513.85,-65.7 513.85,-83.7"/>
<text text-anchor="middle" x="501.85" y="-72.5" font-family="Times New Roman,serif" font-size="9.00">&#45;9</text>
</g>
<!-- &#45;10 -->
<g id="node10" class="node">
<title>&#45;10</title>
<polygon fill="lightgray" stroke="black" points="345.35,-83.7 316.35,-83.7 316.35,-65.7 345.35,-65.7 345.35,-83.7"/>
<text text-anchor="middle" x="330.85" y="-72.5" font-family="Times New Roman,serif" font-size="9.00">&#45;10</text>
</g>
<!-- &#45;10&#45;&gt;1 -->
<g id="edge12" class="edge">
<title>&#45;10&#45;&gt;1</title>
<path fill="none" stroke="green" stroke-width="0.45" stroke-dasharray="1,5" d="M327.51,-65.65C324.57,-58.56 320.13,-47.87 316.13,-38.21"/>
<polygon fill="green" stroke="green" stroke-width="0.45" points="319.25,-36.61 312.19,-28.71 312.79,-39.29 319.25,-36.61"/>
</g>
<!-- &#45;11 -->
<g id="node11" class="node">
<title>&#45;11</title>
<polygon fill="lightgray" stroke="black" points="561.35,-83.7 532.35,-83.7 532.35,-65.7 561.35,-65.7 561.35,-83.7"/>
<text text-anchor="middle" x="546.85" y="-72.5" font-family="Times New Roman,serif" font-size="9.00">&#45;11</text>
</g>
<!-- &#45;12 -->
<g id="node12" class="node">
<title>&#45;12</title>
<polygon fill="lightgray" stroke="black" points="77.35,-83.7 48.35,-83.7 48.35,-65.7 77.35,-65.7 77.35,-83.7"/>
<text text-anchor="middle" x="62.85" y="-72.5" font-family="Times New Roman,serif" font-size="9.00">&#45;12</text>
</g>
<!-- &#45;12&#45;&gt;0 -->
<g id="edge10" class="edge">
<title>&#45;12&#45;&gt;0</title>
<path fill="none" stroke="green" stroke-width="0.18" stroke-dasharray="1,5" d="M62.85,-65.65C62.85,-59.05 62.85,-49.33 62.85,-40.23"/>
<polygon fill="green" stroke="green" stroke-width="0.18" points="66.35,-40.06 62.85,-30.06 59.35,-40.06 66.35,-40.06"/>
</g>
<!-- &#45;13 -->
<g id="node13" class="node">
<title>&#45;13</title>
<polygon fill="lightgray" stroke="black" points="298.35,-83.7 269.35,-83.7 269.35,-65.7 298.35,-65.7 298.35,-83.7"/>
<text text-anchor="middle" x="283.85" y="-72.5" font-family="Times New Roman,serif" font-size="9.00">&#45;13</text>
</g>
<!-- &#45;13&#45;&gt;1 -->
<g id="edge13" class="edge">
<title>&#45;13&#45;&gt;1</title>
<path fill="none" stroke="green" stroke-width="0.29" stroke-dasharray="1,5" d="M287.05,-65.65C289.83,-58.65 294.01,-48.15 297.81,-38.59"/>
<polygon fill="green" stroke="green" stroke-width="0.29" points="301.12,-39.74 301.56,-29.16 294.61,-37.16 301.12,-39.74"/>
</g>
<!-- &#45;13&#45;&gt;4 -->
<g id="edge11" class="edge">
<title>&#45;13&#45;&gt;4</title>
<path fill="none" stroke="green" stroke-width="0.2" stroke-dasharray="1,5" d="M273.14,-65.65C261.12,-56.62 241.36,-41.78 226.53,-30.64"/>
<polygon fill="green" stroke="green" stroke-width="0.2" points="228.57,-27.79 218.47,-24.58 224.36,-33.39 228.57,-27.79"/>
</g>
<!-- &#45;14 -->
<g id="node14" class="node">
<title>&#45;14</title>
<polygon fill="lightgray" stroke="black" points="608.35,-83.7 579.35,-83.7 579.35,-65.7 608.35,-65.7 608.35,-83.7"/>
<text text-anchor="middle" x="593.85" y="-72.5" font-family="Times New Roman,serif" font-size="9.00">&#45;14</text>
</g>
</g>
</svg>
